{
  "asset": {
    "version": "2.0",
    "generator": "THREE.GLTFExporter r182"
  },
  "scenes": [
    {
      "name": "AuxScene",
      "nodes": [
        0
      ]
    }
  ],
  "scene": 0,
  "nodes": [
    {
      "mesh": 0
    }
  ],
  "bufferViews": [
    {
      "buffer": 0,
      "byteOffset": 0,
      "byteLength": 144,
      "target": 34962,
      "byteStride": 12
    },
    {
      "buffer": 0,
      "byteOffset": 144,
      "byteLength": 144,
      "target": 34962,
      "byteStride": 12
    },
    {
      "buffer": 0,
      "byteOffset": 288,
      "byteLength": 96,
      "target": 34962,
      "byteStride": 8
    }
  ],
  "buffers": [
    {
      "byteLength": 384,
      "uri": "data:application/octet-stream;base64,"
    }
  ],
  "accessors": [
    {
      "bufferView": 0,
      "componentType": 5126,
      "count": 12,
      "max": [
        15.703927040100098,
        15.703927040100098,
        15.703927040100098
      ],
      "min": [
        -15.703927040100098,
        -15.703927040100098,
        -15.703927040100098
      ],
      "type": "VEC3"
    },
    {
      "bufferView": 1,
      "componentType": 5126,
      "count": 12,
      "max": [
        0.5773502588272095,
        0.5773502588272095,
        0.5773502588272095
      ],
      "min": [
        -0.5773502588272095,
        -0.5773502588272095,
        -0.5773502588272095
      ],
      "type": "VEC3"
    },
    {
      "bufferView": 2,
      "componentType": 5126,
      "count": 12,
      "max": [
        0.875,
        0.6959132552146912
      ],
      "min": [
        0.125,
        0.30408671498298645
      ],
      "type": "VEC2"
    }
  ],
  "materials": [
    {
      "pbrMetallicRoughness": {
        "baseColorFactor": [
          0.783537791521566,
          0.17144110072255403,
          0.17144110072255403,
          1
        ],
        "metallicFactor": 0.2,
        "roughnessFactor": 0.55
      }
    }
  ],
  "meshes": [
    {
      "primitives": [
        {
          "mode": 4,
          "attributes": {
            "POSITION": 0,
            "NORMAL": 1,
            "TEXCOORD_0": 2
          },
          "material": 0
        }
      ]
    }
  ]
}